<svg xmlns="http://www.w3.org/2000/svg" width="128" height="128" fill="none" viewBox="0 0 128 128">
    <!-- Box with QR Code -->
    <rect x="14" y="14" width="100" height="100" rx="10" fill="#0284C7" />
    <rect x="24" y="24" width="80" height="80" rx="4" fill="white" />
    
    <!-- QR Code Pattern -->
    <rect x="34" y="34" width="20" height="20" fill="#0284C7" />
    <rect x="36" y="36" width="16" height="16" fill="white" />
    <rect x="38" y="38" width="12" height="12" fill="#0284C7" />
    
    <rect x="74" y="34" width="20" height="20" fill="#0284C7" />
    <rect x="76" y="36" width="16" height="16" fill="white" />
    <rect x="78" y="38" width="12" height="12" fill="#0284C7" />
    
    <rect x="34" y="74" width="20" height="20" fill="#0284C7" />
    <rect x="36" y="76" width="16" height="16" fill="white" />
    <rect x="38" y="78" width="12" height="12" fill="#0284C7" />
    
    <rect x="60" y="54" width="6" height="6" fill="#0284C7" />
    <rect x="66" y="60" width="6" height="6" fill="#0284C7" />
    <rect x="72" y="66" width="6" height="6" fill="#0284C7" />
    <rect x="66" y="72" width="6" height="6" fill="#0284C7" />
    <rect x="78" y="78" width="6" height="6" fill="#0284C7" />
    <rect x="60" y="78" width="6" height="6" fill="#0284C7" />
    
    <style>
        rect { fill-opacity: 1; }
        @media (prefers-color-scheme: dark) {
            rect:first-child { fill: #38BDF8; }
        }
    </style>
</svg>
