<svg xmlns="http://www.w3.org/2000/svg" width="800" height="600" viewBox="0 0 800 600" fill="none">
  <!-- Gradient Background -->
  <defs>
    <linearGradient id="bg" x1="0%" y1="0%" x2="100%" y2="100%">
      <stop offset="0%" style="stop-color:#F8FAFC;stop-opacity:1" />
      <stop offset="100%" style="stop-color:#E2E8F0;stop-opacity:1" />
    </linearGradient>
    <filter id="shadow" x="-50%" y="-50%" width="200%" height="200%">
      <feDropShadow dx="0" dy="4" stdDeviation="8" flood-opacity="0.1"/>
    </filter>
    <filter id="glow" x="-50%" y="-50%" width="200%" height="200%">
      <feGaussianBlur result="coloredBlur" stdDeviation="3"/>
      <feMerge> 
        <feMergeNode in="coloredBlur"/>
        <feMergeNode in="SourceGraphic"/>
      </feMerge>
    </filter>
  </defs>
  
  <rect width="800" height="600" fill="url(#bg)"/>
  
  <!-- Subtle Background Shapes -->
  <circle cx="120" cy="480" r="120" fill="#0EA5E9" opacity="0.05"/>
  <circle cx="680" cy="120" r="100" fill="#7C3AED" opacity="0.05"/>
  <polygon points="650,450 750,450 700,350" fill="#F59E0B" opacity="0.05"/>
  
  <!-- Main Storage Box -->
  <g filter="url(#shadow)">
    <rect x="250" y="120" width="280" height="280" rx="20" fill="white" stroke="#E5E7EB" stroke-width="2"/>
    
    <!-- Box Header -->
    <rect x="250" y="120" width="280" height="60" rx="20" fill="#F9FAFB"/>
    <rect x="250" y="160" width="280" height="20" fill="#F9FAFB"/>
    
    <!-- Clickable QR Code for manudev.dev -->
    <a href="https://manudev.dev" target="_blank">
      <rect x="280" y="200" width="220" height="220" fill="white" stroke="#E5E7EB" stroke-width="1"/>
      
      <!-- Top-left positioning square -->
      <rect x="290" y="210" width="50" height="50" fill="black"/>
      <rect x="300" y="220" width="30" height="30" fill="white"/>
      <rect x="310" y="230" width="10" height="10" fill="black"/>
      
      <!-- Top-right positioning square -->
      <rect x="440" y="210" width="50" height="50" fill="black"/>
      <rect x="450" y="220" width="30" height="30" fill="white"/>
      <rect x="460" y="230" width="10" height="10" fill="black"/>
      
      <!-- Bottom-left positioning square -->
      <rect x="290" y="360" width="50" height="50" fill="black"/>
      <rect x="300" y="370" width="30" height="30" fill="white"/>
      <rect x="310" y="380" width="10" height="10" fill="black"/>
      
      <!-- Timing patterns -->
      <rect x="350" y="210" width="10" height="10" fill="black"/>
      <rect x="370" y="210" width="10" height="10" fill="black"/>
      <rect x="390" y="210" width="10" height="10" fill="black"/>
      <rect x="410" y="210" width="10" height="10" fill="black"/>
      <rect x="430" y="210" width="10" height="10" fill="black"/>
      
      <rect x="290" y="270" width="10" height="10" fill="black"/>
      <rect x="290" y="290" width="10" height="10" fill="black"/>
      <rect x="290" y="310" width="10" height="10" fill="black"/>
      <rect x="290" y="330" width="10" height="10" fill="black"/>
      <rect x="290" y="350" width="10" height="10" fill="black"/>
      
      <!-- Data pattern for manudev.dev URL -->
      <!-- Row 1 (after positioning) -->
      <rect x="350" y="270" width="10" height="10" fill="black"/>
      <rect x="370" y="270" width="10" height="10" fill="black"/>
      <rect x="410" y="270" width="10" height="10" fill="black"/>
      <rect x="450" y="270" width="10" height="10" fill="black"/>
      <rect x="470" y="270" width="10" height="10" fill="black"/>
      
      <!-- Row 2 -->
      <rect x="350" y="280" width="10" height="10" fill="black"/>
      <rect x="380" y="280" width="10" height="10" fill="black"/>
      <rect x="400" y="280" width="10" height="10" fill="black"/>
      <rect x="430" y="280" width="10" height="10" fill="black"/>
      <rect x="460" y="280" width="10" height="10" fill="black"/>
      <rect x="480" y="280" width="10" height="10" fill="black"/>
      
      <!-- Row 3 -->
      <rect x="360" y="290" width="10" height="10" fill="black"/>
      <rect x="390" y="290" width="10" height="10" fill="black"/>
      <rect x="420" y="290" width="10" height="10" fill="black"/>
      <rect x="440" y="290" width="10" height="10" fill="black"/>
      <rect x="470" y="290" width="10" height="10" fill="black"/>
      
      <!-- Row 4 -->
      <rect x="350" y="300" width="10" height="10" fill="black"/>
      <rect x="380" y="300" width="10" height="10" fill="black"/>
      <rect x="410" y="300" width="10" height="10" fill="black"/>
      <rect x="450" y="300" width="10" height="10" fill="black"/>
      <rect x="480" y="300" width="10" height="10" fill="black"/>
      
      <!-- Row 5 -->
      <rect x="360" y="310" width="10" height="10" fill="black"/>
      <rect x="390" y="310" width="10" height="10" fill="black"/>
      <rect x="400" y="310" width="10" height="10" fill="black"/>
      <rect x="430" y="310" width="10" height="10" fill="black"/>
      <rect x="460" y="310" width="10" height="10" fill="black"/>
      
      <!-- Row 6 -->
      <rect x="350" y="320" width="10" height="10" fill="black"/>
      <rect x="370" y="320" width="10" height="10" fill="black"/>
      <rect x="420" y="320" width="10" height="10" fill="black"/>
      <rect x="440" y="320" width="10" height="10" fill="black"/>
      <rect x="470" y="320" width="10" height="10" fill="black"/>
      <rect x="480" y="320" width="10" height="10" fill="black"/>
      
      <!-- Row 7 -->
      <rect x="360" y="330" width="10" height="10" fill="black"/>
      <rect x="380" y="330" width="10" height="10" fill="black"/>
      <rect x="410" y="330" width="10" height="10" fill="black"/>
      <rect x="450" y="330" width="10" height="10" fill="black"/>
      <rect x="470" y="330" width="10" height="10" fill="black"/>
      
      <!-- Row 8 -->
      <rect x="350" y="340" width="10" height="10" fill="black"/>
      <rect x="390" y="340" width="10" height="10" fill="black"/>
      <rect x="420" y="340" width="10" height="10" fill="black"/>
      <rect x="440" y="340" width="10" height="10" fill="black"/>
      <rect x="460" y="340" width="10" height="10" fill="black"/>
      <rect x="480" y="340" width="10" height="10" fill="black"/>
      
      <!-- Row 9 -->
      <rect x="360" y="350" width="10" height="10" fill="black"/>
      <rect x="380" y="350" width="10" height="10" fill="black"/>
      <rect x="400" y="350" width="10" height="10" fill="black"/>
      <rect x="430" y="350" width="10" height="10" fill="black"/>
      <rect x="470" y="350" width="10" height="10" fill="black"/>
      
      <!-- Bottom rows -->
      <rect x="350" y="370" width="10" height="10" fill="black"/>
      <rect x="370" y="370" width="10" height="10" fill="black"/>
      <rect x="390" y="370" width="10" height="10" fill="black"/>
      <rect x="420" y="370" width="10" height="10" fill="black"/>
      <rect x="450" y="370" width="10" height="10" fill="black"/>
      <rect x="480" y="370" width="10" height="10" fill="black"/>
      
      <rect x="360" y="380" width="10" height="10" fill="black"/>
      <rect x="380" y="380" width="10" height="10" fill="black"/>
      <rect x="410" y="380" width="10" height="10" fill="black"/>
      <rect x="440" y="380" width="10" height="10" fill="black"/>
      <rect x="470" y="380" width="10" height="10" fill="black"/>
      
      <rect x="350" y="390" width="10" height="10" fill="black"/>
      <rect x="390" y="390" width="10" height="10" fill="black"/>
      <rect x="420" y="390" width="10" height="10" fill="black"/>
      <rect x="460" y="390" width="10" height="10" fill="black"/>
      <rect x="480" y="390" width="10" height="10" fill="black"/>
      
      <rect x="370" y="400" width="10" height="10" fill="black"/>
      <rect x="400" y="400" width="10" height="10" fill="black"/>
      <rect x="430" y="400" width="10" height="10" fill="black"/>
      <rect x="450" y="400" width="10" height="10" fill="black"/>
      <rect x="470" y="400" width="10" height="10" fill="black"/>
      
      <!-- Hover effect -->
      <rect x="280" y="200" width="220" height="220" fill="rgba(14, 165, 233, 0.1)" opacity="0">
        <animate attributeName="opacity" values="0;0.3;0" dur="2s" repeatCount="indefinite"/>
      </rect>
    </a>
    
    <!-- Box Label -->
    <text x="390" y="145" font-family="system-ui" font-size="16" font-weight="600" fill="#374151" text-anchor="middle">Kitchen Items</text>
    <text x="390" y="450" font-family="system-ui" font-size="14" fill="#6B7280" text-anchor="middle">Box #001 • Living Room</text>
  </g>
  
  <!-- Modern Phone -->
  <g filter="url(#shadow)">
    <rect x="480" y="280" width="140" height="260" rx="25" fill="#1F2937"/>
    <rect x="490" y="300" width="120" height="200" rx="15" fill="#111827"/>
    
    <!-- Phone Screen -->
    <rect x="495" y="305" width="110" height="190" rx="10" fill="white"/>
    
    <!-- Camera App UI -->
    <rect x="495" y="305" width="110" height="30" fill="#F3F4F6"/>
    <text x="550" y="325" font-family="system-ui" font-size="12" font-weight="500" fill="#374151" text-anchor="middle">QR Scanner</text>
    
    <!-- QR Scanner Viewfinder -->
    <rect x="505" y="345" width="90" height="90" fill="#F9FAFB" stroke="#E5E7EB" stroke-width="1" stroke-dasharray="5,5"/>
    
    <!-- Scanner corners -->
    <path d="M505 345 L505 355 L515 355" stroke="#0EA5E9" stroke-width="3" fill="none" stroke-linecap="round"/>
    <path d="M585 345 L595 345 L595 355" stroke="#0EA5E9" stroke-width="3" fill="none" stroke-linecap="round"/>
    <path d="M505 425 L505 435 L515 435" stroke="#0EA5E9" stroke-width="3" fill="none" stroke-linecap="round"/>
    <path d="M585 435 L595 435 L595 425" stroke="#0EA5E9" stroke-width="3" fill="none" stroke-linecap="round"/>
    
    <!-- Scanning line with glow -->
    <line x1="505" y1="390" x2="595" y2="390" stroke="#0EA5E9" stroke-width="2" opacity="0.8" filter="url(#glow)">
      <animate attributeName="y1" values="345;435;345" dur="2s" repeatCount="indefinite"/>
      <animate attributeName="y2" values="345;435;345" dur="2s" repeatCount="indefinite"/>
    </line>
    
    <!-- Scan result -->
    <rect x="500" y="445" width="100" height="40" rx="8" fill="#10B981" opacity="0.1"/>
    <text x="550" y="460" font-family="system-ui" font-size="10" font-weight="500" fill="#059669" text-anchor="middle">Box Found!</text>
    <text x="550" y="475" font-family="system-ui" font-size="9" fill="#6B7280" text-anchor="middle">Kitchen Items</text>
    
    <!-- Home indicator -->
    <rect x="535" y="515" width="30" height="4" rx="2" fill="#9CA3AF"/>
  </g>
  
  <!-- Additional Storage Boxes -->
  <g filter="url(#shadow)">
    <rect x="120" y="200" width="100" height="120" rx="12" fill="white" stroke="#E5E7EB" stroke-width="1"/>
    <rect x="130" y="210" width="80" height="80" fill="#F9FAFB"/>
    <!-- Mini QR code for manudev.dev -->
    <rect x="140" y="220" width="15" height="15" fill="black"/>
    <rect x="145" y="225" width="5" height="5" fill="white"/>
    <rect x="165" y="220" width="15" height="15" fill="black"/>
    <rect x="170" y="225" width="5" height="5" fill="white"/>
    <rect x="140" y="265" width="15" height="15" fill="black"/>
    <rect x="145" y="270" width="5" height="5" fill="white"/>
    <!-- Data points for manudev.dev -->
    <rect x="160" y="240" width="5" height="5" fill="black"/>
    <rect x="150" y="250" width="5" height="5" fill="black"/>
    <rect x="175" y="245" width="5" height="5" fill="black"/>
    <rect x="185" y="235" width="5" height="5" fill="black"/>
    <rect x="155" y="260" width="5" height="5" fill="black"/>
    <rect x="180" y="255" width="5" height="5" fill="black"/>
    <text x="160" y="305" font-family="system-ui" font-size="10" font-weight="500" fill="#6B7280" text-anchor="middle">Bedroom</text>
    <text x="160" y="315" font-family="system-ui" font-size="8" fill="#9CA3AF" text-anchor="middle">Box #002</text>
  </g>
  
  <g filter="url(#shadow)">
    <rect x="580" y="150" width="90" height="110" rx="10" fill="white" stroke="#E5E7EB" stroke-width="1"/>
    <rect x="590" y="160" width="70" height="70" fill="#F9FAFB"/>
    <!-- Mini QR code for manudev.dev -->
    <rect x="600" y="170" width="12" height="12" fill="black"/>
    <rect x="604" y="174" width="4" height="4" fill="white"/>
    <rect x="620" y="170" width="12" height="12" fill="black"/>
    <rect x="624" y="174" width="4" height="4" fill="white"/>
    <rect x="600" y="210" width="12" height="12" fill="black"/>
    <rect x="604" y="214" width="4" height="4" fill="white"/>
    <!-- Data points for manudev.dev -->
    <rect x="615" y="190" width="4" height="4" fill="black"/>
    <rect x="610" y="195" width="4" height="4" fill="black"/>
    <rect x="630" y="185" width="4" height="4" fill="black"/>
    <rect x="635" y="200" width="4" height="4" fill="black"/>
    <rect x="625" y="205" width="4" height="4" fill="black"/>
    <text x="625" y="245" font-family="system-ui" font-size="9" font-weight="500" fill="#6B7280" text-anchor="middle">Office</text>
    <text x="625" y="254" font-family="system-ui" font-size="7" fill="#9CA3AF" text-anchor="middle">Box #003</text>
  </g>
  
  <g filter="url(#shadow)">
    <rect x="180" y="380" width="80" height="100" rx="10" fill="white" stroke="#E5E7EB" stroke-width="1"/>
    <rect x="190" y="390" width="60" height="60" fill="#F9FAFB"/>
    <!-- Mini QR code for manudev.dev -->
    <rect x="200" y="400" width="10" height="10" fill="black"/>
    <rect x="203" y="403" width="4" height="4" fill="white"/>
    <rect x="220" y="400" width="10" height="10" fill="black"/>
    <rect x="223" y="403" width="4" height="4" fill="white"/>
    <rect x="200" y="430" width="10" height="10" fill="black"/>
    <rect x="203" y="433" width="4" height="4" fill="white"/>
    <!-- Data points for manudev.dev -->
    <rect x="215" y="415" width="3" height="3" fill="black"/>
    <rect x="210" y="420" width="3" height="3" fill="black"/>
    <rect x="230" y="410" width="3" height="3" fill="black"/>
    <rect x="235" y="425" width="3" height="3" fill="black"/>
    <rect x="225" y="435" width="3" height="3" fill="black"/>
    <text x="220" y="465" font-family="system-ui" font-size="8" font-weight="500" fill="#6B7280" text-anchor="middle">Garage</text>
    <text x="220" y="473" font-family="system-ui" font-size="7" fill="#9CA3AF" text-anchor="middle">Box #004</text>
  </g>
  
  <!-- Connecting Lines -->
  <path d="M350 300 Q400 250 480 320" stroke="#0EA5E9" stroke-width="2" stroke-dasharray="5,5" fill="none" opacity="0.6">
    <animate attributeName="stroke-dashoffset" values="0;10" dur="1s" repeatCount="indefinite"/>
  </path>
  
  <!-- Floating Elements -->
  <circle cx="50" cy="150" r="8" fill="#0EA5E9" opacity="0.3">
    <animate attributeName="cy" values="150;140;150" dur="3s" repeatCount="indefinite"/>
  </circle>
  <circle cx="750" cy="350" r="6" fill="#7C3AED" opacity="0.3">
    <animate attributeName="cy" values="350;340;350" dur="4s" repeatCount="indefinite"/>
  </circle>
</svg>