<svg xmlns="http://www.w3.org/2000/svg" width="192" height="192" fill="none" viewBox="0 0 192 192">
  <path fill="#0284c7" fill-rule="evenodd" d="M44 44H84V84H44V44ZM52 52H76V76H52V52Z" clip-rule="evenodd"/>
  <path fill="#0284c7" fill-rule="evenodd" d="M64 64H76V76H64V64Z" clip-rule="evenodd"/>
  <path fill="#0284c7" fill-rule="evenodd" d="M44 108H84V148H44V108ZM52 116H76V140H52V116Z" clip-rule="evenodd"/>
  <path fill="#0284c7" fill-rule="evenodd" d="M64 128H76V140H64V128Z" clip-rule="evenodd"/>
  <path fill="#0284c7" fill-rule="evenodd" d="M108 44H148V84H108V44ZM116 52H140V76H116V52Z" clip-rule="evenodd"/>
  <path fill="#0284c7" fill-rule="evenodd" d="M128 64H140V76H128V64Z" clip-rule="evenodd"/>
  <path fill="#0284c7" fill-rule="evenodd" d="M108 108H116V116H108V108Z" clip-rule="evenodd"/>
  <path fill="#0284c7" fill-rule="evenodd" d="M132 108H140V116H132V108Z" clip-rule="evenodd"/>
  <path fill="#0284c7" fill-rule="evenodd" d="M140 116H148V124H140V116Z" clip-rule="evenodd"/>
  <path fill="#0284c7" fill-rule="evenodd" d="M116 124H124V132H116V124Z" clip-rule="evenodd"/>
  <path fill="#0284c7" fill-rule="evenodd" d="M132 124H140V132H132V124Z" clip-rule="evenodd"/>
  <path fill="#0284c7" fill-rule="evenodd" d="M108 132H116V140H108V132Z" clip-rule="evenodd"/>
  <path fill="#0284c7" fill-rule="evenodd" d="M124 132H132V140H124V132Z" clip-rule="evenodd"/>
  <path fill="#0284c7" fill-rule="evenodd" d="M140 132H148V140H140V132Z" clip-rule="evenodd"/>
  <path fill="#0284c7" fill-rule="evenodd" d="M108 140H116V148H108V140Z" clip-rule="evenodd"/>
  <path fill="#0284c7" fill-rule="evenodd" d="M124 140H132V148H124V140Z" clip-rule="evenodd"/>
</svg>